# Blender v2.91.0 Beta OBJ File: 'AI project three assets.blend'
# www.blender.org
mtllib rock 2.mtl
o rock_2_Plane.005
v -9.199537 -0.204384 -3.381654
v -8.062029 -0.204384 -3.141366
v -9.641321 -0.204384 -4.258524
v -9.102865 1.246672 -3.472973
v -7.978758 0.949483 -3.256367
v -9.377390 1.448579 -4.183836
v -8.822407 1.131782 -5.004515
v -7.824079 1.323904 -3.920690
v -6.865013 0.958481 -3.464632
v -8.035648 1.112592 -5.063061
v -6.776918 0.884966 -4.267514
v -7.993943 -0.204384 -5.128417
v -6.466630 -0.204384 -3.875599
v -8.788408 -0.204384 -5.135395
v -7.918058 -0.204384 -3.988322
v -6.756645 -0.204384 -3.180699
v -7.095516 -0.204384 -2.681225
v -7.314226 0.738184 -3.059637
vt 0.811498 0.973353
vt 0.809880 0.917921
vt 0.754989 0.917114
vt 0.743124 0.972276
vt 0.164311 0.908259
vt 0.183303 0.951118
vt 0.225507 0.879325
vt 0.189884 0.858995
vt 0.887073 0.912177
vt 0.851457 0.921826
vt 0.863719 0.989506
vt 0.894488 0.991769
vt 0.321143 0.871650
vt 0.350752 0.919572
vt 0.369480 0.906521
vt 0.333210 0.840792
vt 0.937017 0.913263
vt 0.937017 0.976032
vt 0.406116 0.864458
vt 0.382246 0.836738
vt 0.764449 0.883870
vt 0.747804 0.866528
vt 0.729350 0.916044
vt 0.387984 0.955187
vt 0.418676 0.934650
vt 0.436380 0.955649
vt 0.436380 0.861440
vt 0.414877 0.831459
vt 0.265294 0.916647
vt 0.265294 0.822335
vt 0.230862 0.812000
vt 0.241496 0.946185
vt 0.202164 0.809385
vt 0.436656 0.858426
vt 0.438237 0.893870
vt 0.493473 0.904801
vt 0.493473 0.866429
vt 0.436380 0.831459
vt 0.484042 0.843304
vt 0.811498 0.868703
vn -0.1858 0.0903 0.9784
vn 0.0000 -1.0000 -0.0000
vn -0.9011 0.1069 0.4201
vn 0.0772 0.9219 0.3796
vn -0.7562 0.1026 -0.6463
vn 0.0809 0.9660 -0.2457
vn 0.0909 0.8476 0.5228
vn 0.3370 0.9283 -0.1573
vn 0.5910 -0.0230 -0.8064
vn -0.0316 0.0728 -0.9968
vn 0.9432 0.2432 0.2262
vn 0.6764 0.3146 0.6660
vn -0.3448 0.1939 0.9184
usemtl rock
s off
f 1/1/1 2/2/1 5/3/1 4/4/1
f 1/5/2 3/6/2 15/7/2 2/8/2
f 3/9/3 1/10/3 4/11/3 6/12/3
f 4/13/4 5/14/4 8/15/4 6/16/4
f 14/17/5 3/9/5 6/12/5 7/18/5
f 6/16/6 8/15/6 10/19/6 7/20/6
f 5/3/7 18/21/7 9/22/7 8/23/7
f 8/15/8 9/24/8 11/25/8 10/19/8
f 13/26/9 12/27/9 10/19/9 11/25/9
f 12/27/10 14/28/10 7/20/10 10/19/10
f 15/7/2 12/29/2 13/30/2 16/31/2
f 3/6/2 14/32/2 12/29/2 15/7/2
f 2/8/2 15/7/2 16/31/2 17/33/2
f 16/34/11 13/35/11 11/36/11 9/37/11
f 17/38/12 16/34/12 9/37/12 18/39/12
f 2/2/13 17/40/13 18/21/13 5/3/13
