# Blender v2.91.0 Beta OBJ File: 'AI project three assets.blend'
# www.blender.org
mtllib rock 3.mtl
o rock_3_Plane.006
v -11.232742 -0.204384 -0.183649
v -9.924234 -0.204384 0.227636
v -11.320316 -0.204384 -1.353658
v -11.042063 1.119652 -0.369186
v -9.806552 1.445733 -0.108770
v -11.119690 1.024923 -1.303985
v -10.170765 0.729925 -1.759628
v -9.746876 1.513473 -0.897670
v -9.237772 0.966797 -1.636504
v -9.267364 2.005385 -0.822785
v -9.001439 1.601413 -1.403106
v -9.485336 2.027718 -0.256889
v -8.648657 1.953976 -0.653444
v -9.015555 2.000063 -0.135241
v -8.526731 1.676340 -1.209774
v -8.533355 1.453157 -0.579116
v -9.035896 1.456013 0.101581
v -8.474383 1.181297 -1.286611
v -8.484653 -0.204384 -0.544169
v -8.920320 -0.204384 0.324285
v -8.426550 -0.204384 -1.410440
v -9.853550 -0.204384 -0.851387
v -9.404877 -0.237239 -1.982609
v -10.210909 -0.204384 -2.010674
vt 0.957415 0.762193
vt 0.960882 0.697404
vt 0.880494 0.693085
vt 0.893826 0.753551
vt 0.415000 0.702510
vt 0.359798 0.692995
vt 0.376957 0.764999
vt 0.428559 0.766576
vt 0.434134 0.732875
vt 0.428559 0.786373
vt 0.492770 0.786238
vt 0.492770 0.742838
vt 0.873946 0.649357
vt 0.931403 0.644350
vt 0.917367 0.613604
vt 0.851457 0.611991
vt 0.449910 0.692995
vt 0.492058 0.711410
vt 0.925414 0.564356
vt 0.883526 0.571223
vt 0.303925 0.889030
vt 0.292398 0.845037
vt 0.265294 0.839360
vt 0.274758 0.872616
vt 0.303925 0.809385
vt 0.272394 0.811641
vt 0.938071 0.618066
vt 0.968271 0.612722
vt 0.962734 0.583001
vt 0.938574 0.582276
vt 0.940424 0.644670
vt 0.963178 0.640571
vt 0.026312 0.936457
vt 0.027569 0.899251
vt 0.002916 0.897990
vt 0.000000 0.926217
vt 0.038311 0.865296
vt 0.014898 0.870329
vt 0.106104 0.942527
vt 0.106104 0.897369
vt 0.103479 0.856546
vt 0.385294 0.831459
vt 0.428559 0.814728
vt 0.321143 0.781146
vt 0.343860 0.830256
vt 0.323499 0.742712
vt 0.968271 0.535041
vt 0.914518 0.529180
vt 0.964806 0.568971
vt 0.879275 0.543030
vt 0.960882 0.649357
vt 0.881674 0.655160
vt 0.853662 0.655561
vt 0.851457 0.678603
vn -0.2736 0.1937 0.9421
vn 0.0000 -1.0000 -0.0000
vn -0.9854 0.1548 0.0704
vn -0.2953 0.9553 -0.0119
vn -0.4493 0.1718 -0.8767
vn -0.0906 0.7587 -0.6451
vn -0.5213 0.5170 -0.6789
vn -0.7980 0.5852 -0.1439
vn 0.1386 0.8695 -0.4741
vn 0.0780 0.9967 -0.0208
vn 0.7906 0.2397 0.5635
vn 0.9838 0.1654 0.0689
vn 0.8525 0.0823 0.5162
vn 0.9972 0.0296 0.0691
vn 0.0072 -0.9998 0.0183
vn -0.0156 -0.9999 0.0048
vn 0.4477 0.1396 -0.8832
vn 0.0528 0.2638 -0.9631
vn -0.1691 0.1642 0.9718
vn 0.3560 0.1931 -0.9143
vn -0.2345 0.3774 0.8959
usemtl rock
s off
f 1/1/1 2/2/1 5/3/1 4/4/1
f 1/5/2 3/6/2 22/7/2 2/8/2
f 3/9/3 1/10/3 4/11/3 6/12/3
f 4/13/4 5/14/4 8/15/4 6/16/4
f 24/17/5 3/9/5 6/12/5 7/18/5
f 6/16/6 8/15/6 9/19/6 7/20/6
f 9/21/7 8/22/7 10/23/7 11/24/7
f 8/22/8 5/25/8 12/26/8 10/23/8
f 10/27/9 13/28/9 15/29/9 11/30/9
f 12/31/10 14/32/10 13/28/10 10/27/10
f 17/33/11 16/34/11 13/35/11 14/36/11
f 16/34/12 18/37/12 15/38/12 13/35/12
f 20/39/13 19/40/13 16/34/13 17/33/13
f 19/40/14 21/41/14 18/37/14 16/34/14
f 2/8/2 22/7/2 19/42/2 20/43/2
f 22/7/15 23/44/15 21/45/15 19/42/15
f 3/6/16 24/46/16 23/44/16 22/7/16
f 21/47/17 23/48/17 9/19/17 18/49/17
f 23/48/18 24/50/18 7/20/18 9/19/18
f 2/2/19 20/51/19 17/52/19 5/3/19
f 18/49/20 9/19/20 11/30/20 15/29/20
f 5/3/21 17/52/21 14/53/21 12/54/21
